<svg width="211.6750244140625px" height="122.021240234375px" xmlns="http://www.w3.org/2000/svg" viewBox="144.16248779296876 13.9893798828125 211.6750244140625 122.021240234375" style="background: rgba(0, 0, 0, 0);" preserveAspectRatio="xMidYMid"><defs><filter id="editing-extrude-glow"><feFlood flood-color="#ebebeb" result="flood-1"></feFlood><feMorphology operator="erode" radius="1" in="SourceAlpha" result="erode"></feMorphology><feComposite operator="in" in="flood-1" in2="erode" result="comp1"></feComposite><feConvolveMatrix order="3,3" divisor="1" in="comp1" result="convolve" kernelMatrix="0 0 0 1 1 1 0 0 0"></feConvolveMatrix><feOffset dx="-3" dy="0" in="convolve" result="extrude"></feOffset><feComposite operator="in" in="flood-1" in2="extrude" result="comp-extrude"></feComposite><feFlood flood-color="#797979" result="flood-2"></feFlood><feComposite operator="in" in="flood-2" in2="SourceAlpha" result="comp2"></feComposite><feMorphology operator="dilate" radius="1" in="comp2" result="dilate"></feMorphology><feOffset dx="-4.5" dy="0" in="dilate" result="offset"></feOffset><feGaussianBlur in="offset" stdDeviation="5.8" result="blur"></feGaussianBlur><feComponentTransfer in="blur" result="shadow"><feFuncA type="linear" slope="0.8" intercept="-0.2"></feFuncA></feComponentTransfer><feMerge><feMergeNode in="shadow"></feMergeNode><feMergeNode in="comp-extrude"></feMergeNode><feMergeNode in="SourceGraphic"></feMergeNode></feMerge></filter></defs><g filter="url(#editing-extrude-glow)"><g transform="translate(180.14500120282173, 97.00718688964844)"><path d="M26.11-42.69L26.11-42.69L26.11-42.69Q41.79-42.69 41.79-31.62L41.79-31.62L41.79-31.62Q41.79-25.54 37.89-21.89L37.89-21.89L37.89-21.89Q34.05-18.24 27.33-18.24L27.33-18.24L27.33-18.24Q24.19-18.24 21.76-20.03L21.76-20.03L21.76-20.03Q20.61-20.80 19.84-21.82L19.84-21.82L19.84-21.82Q24.51-21.82 26.98-24.67L26.98-24.67L26.98-24.67Q29.44-27.52 29.44-33.09L29.44-33.09L29.44-33.09Q29.44-38.66 23.94-38.66L23.94-38.66L22.40-38.66L22.40-38.66Q22.02-38.66 21.70-38.59L21.70-38.59L14.34 0L0.45 0L8.32-41.92L8.32-41.92Q15.17-42.56 19.14-42.62L19.14-42.62L19.14-42.62Q23.10-42.69 26.11-42.69ZM55.23 0L41.54 0L49.34-42.05L49.34-42.05Q55.68-42.75 64.93-42.75L64.93-42.75L64.93-42.75Q74.18-42.75 78.46-40.06L78.46-40.06L78.46-40.06Q82.75-37.38 82.75-31.97L82.75-31.97L82.75-31.97Q82.75-26.56 79.97-23.17L79.97-23.17L79.97-23.17Q77.18-19.78 72.38-18.69L72.38-18.69L72.38-18.69Q73.47-13.38 75.97-9.09L75.97-9.09L75.97-9.09Q78.27-5.06 80.96-3.78L80.96-3.78L80.96-3.78Q80-1.09 78.05 0.10L78.05 0.10L78.05 0.10Q76.10 1.28 73.31 1.28L73.31 1.28L73.31 1.28Q70.53 1.28 68.35-0.35L68.35-0.35L68.35-0.35Q66.18-1.98 64.45-4.99L64.45-4.99L64.45-4.99Q60.80-11.52 60.42-21.82L60.42-21.82L60.86-21.82L60.86-21.82Q65.60-21.95 67.97-24.42L67.97-24.42L67.97-24.42Q70.34-26.88 70.34-32.06L70.34-32.06L70.34-32.06Q70.34-38.53 64.90-38.78L64.90-38.78L63.49-38.78L63.49-38.78Q62.91-38.78 62.59-38.72L62.59-38.72L55.23 0ZM91.14 0L83.78 0L95.36-42.24L108.74-42.24L111.68-18.11L123.58-42.24L134.78-42.24L135.94-10.62L135.94-10.62Q136.19-4.35 139.26-2.43L139.26-2.43L139.26-2.43Q138.56-1.15 136.51 0.06L136.51 0.06L136.51 0.06Q134.46 1.28 131.74 1.28L131.74 1.28L131.74 1.28Q129.02 1.28 127.42 0.51L127.42 0.51L127.42 0.51Q125.82-0.26 124.93-1.54L124.93-1.54L124.93-1.54Q123.33-3.84 123.33-8.26L123.33-8.26L123.33-28.03L110.72 0L102.78 0L98.30-28.74L91.14 0Z" fill="#409eff"></path></g></g><style>text {
  font-size: 64px;
  font-family: Arial Black;
  dominant-baseline: central;
  text-anchor: middle;
}</style></svg>